<?xml version="1.0" encoding="UTF-8" standalone="no"?>
<!-- Created with Inkscape (http://www.inkscape.org/) -->

<svg
   xmlns:dc="http://purl.org/dc/elements/1.1/"
   xmlns:cc="http://creativecommons.org/ns#"
   xmlns:rdf="http://www.w3.org/1999/02/22-rdf-syntax-ns#"
   xmlns:svg="http://www.w3.org/2000/svg"
   xmlns="http://www.w3.org/2000/svg"
   xmlns:sodipodi="http://sodipodi.sourceforge.net/DTD/sodipodi-0.dtd"
   xmlns:inkscape="http://www.inkscape.org/namespaces/inkscape"
   width="160"
   height="160"
   id="svg2"
   version="1.1"
   inkscape:version="0.48.1 r9760"
   sodipodi:docname="New document 1">
  <defs
     id="defs4" />
  <sodipodi:namedview
     id="base"
     pagecolor="#ffffff"
     bordercolor="#666666"
     borderopacity="1.0"
     inkscape:pageopacity="0.0"
     inkscape:pageshadow="2"
     inkscape:zoom="2.575"
     inkscape:cx="10.097087"
     inkscape:cy="72.23301"
     inkscape:document-units="px"
     inkscape:current-layer="layer1"
     showgrid="false"
     inkscape:window-width="1920"
     inkscape:window-height="1007"
     inkscape:window-x="0"
     inkscape:window-y="24"
     inkscape:window-maximized="1">
    <inkscape:grid
       type="xygrid"
       id="grid3050"
       empspacing="5"
       visible="true"
       enabled="true"
       snapvisiblegridlinesonly="true" />
  </sodipodi:namedview>
  <metadata
     id="metadata7">
    <rdf:RDF>
      <cc:Work
         rdf:about="">
        <dc:format>image/svg+xml</dc:format>
        <dc:type
           rdf:resource="http://purl.org/dc/dcmitype/StillImage" />
        <dc:title></dc:title>
      </cc:Work>
    </rdf:RDF>
  </metadata>
  <g
     inkscape:label="Layer 1"
     inkscape:groupmode="layer"
     id="layer1"
     transform="translate(0,-892.36218)">
    <path
       sodipodi:type="arc"
       style="fill:#b8b8b8;fill-opacity:1;stroke:none"
       id="path3845"
       sodipodi:cx="80"
       sodipodi:cy="80"
       sodipodi:rx="55"
       sodipodi:ry="55"
       d="M 135,80 A 55,55 0 1 1 25,80 55,55 0 1 1 135,80 z"
       transform="translate(0,892.36218)" />
    <g
       id="g3840"
       transform="matrix(0.5,0.8660254,-0.8660254,0.5,882.09036,416.89906)"
       style="fill:#a22f2f;fill-opacity:1">
      <rect
         transform="translate(0,892.36218)"
         y="70"
         x="30"
         height="20"
         width="100"
         id="rect3829"
         style="fill:#a22f2f;fill-opacity:1;stroke:none" />
      <path
         sodipodi:nodetypes="ccccc"
         inkscape:connector-curvature="0"
         id="rect3835"
         d="m 55,30 50,0 15,20 -80,0 z"
         style="fill:#a22f2f;fill-opacity:1;stroke:none"
         transform="translate(0,892.36218)" />
      <path
         style="fill:#a22f2f;fill-opacity:1;stroke:none"
         d="m 55,1022.3622 50,0 15,-20 -80,0 z"
         id="path3838"
         inkscape:connector-curvature="0"
         sodipodi:nodetypes="ccccc" />
    </g>
    <path
       inkscape:connector-curvature="0"
       style="fill:#353535;fill-opacity:1;fill-rule:evenodd;stroke:none"
       d="m 80,912.36218 c -33.137085,0 -60,26.86291 -60,60 0,33.13712 26.862915,60.00002 60,60.00002 33.13708,0 60,-26.8629 60,-60.00002 0,-33.13709 -26.86292,-60 -60,-60 z m 0,15 c 24.85281,0 45,20.14719 45,45 0,24.85281 -20.14719,45.00002 -45,45.00002 -24.852814,0 -45,-20.14721 -45,-45.00002 0,-24.85281 20.147186,-45 45,-45 z"
       id="path3052" />
    <path
       style="font-size:medium;font-style:normal;font-variant:normal;font-weight:normal;font-stretch:normal;text-indent:0;text-align:start;text-decoration:none;line-height:normal;letter-spacing:normal;word-spacing:normal;text-transform:none;direction:ltr;block-progression:tb;writing-mode:lr-tb;text-anchor:start;baseline-shift:baseline;color:#000000;fill:#353535;fill-opacity:1;stroke:none;stroke-width:15;marker:none;visibility:visible;display:inline;overflow:visible;enable-background:accumulate;font-family:Sans;-inkscape-font-specification:Sans"
       d="m 66.65625,1003.25 c -4.938015,0.4315 -10.224389,1.7491 -15.75,4.125 l 5.9375,13.7812 c 8.536156,-3.6704 14.381861,-3.6927 19.78125,-2.2812 5.399389,1.4115 10.52834,4.6338 16.15625,8.5 5.62791,3.8662 11.7812,7.9915 18.56705,9.5091 9.00256,2.0134 23.12831,0.036 25.9727,-11.1165 -7.00409,2.8658 -15.41409,0.1683 -20.2585,-1.5176 -4.84441,-1.6859 -9.95285,-5.2148 -15.78125,-9.2188 -5.8284,-4.0039 -12.457641,-8.4557 -20.875,-10.6562 -4.20868,-1.1002 -8.811985,-1.5565 -13.75,-1.125 z"
       id="path3825"
       inkscape:connector-curvature="0"
       sodipodi:nodetypes="sccssscsscs" />
  </g>
</svg>
